# xmcd
#
# Track frame offsets:
#	150
#	18630
#	38062
#	55767
#	71790
#	89522
#	104970
#	122787
#	137380
#	153617
#	169482
#	189940
#
# Disc length: 2792 seconds
#
# Revision: 1
# Processed by: cddbd v1.5.1PL0 Copyright (c) Steve Scherf et al.
# Submitted via: audiograbber 1.83.01
#
DISCID=ad0ae60c
DTITLE=Türkülü Yürekler - Muhabbet 1997
DYEAR=1900
DGENRE=
TTITLE0=Aciyi nar eylediler
TTITLE1=Yabanci
TTITLE2=Suda balik yan gider
TTITLE3=Marifetten mahrum olan
TTITLE4=Bilmem ne haldir
TTITLE5=Bilmem su felegin
TTITLE6=Yandiriyorsun
TTITLE7=Hasta düstüm
TTITLE8=Bin derdim var idi
TTITLE9=Dinleyin agalar
TTITLE10=Ben felegi gördüm
TTITLE11=Saray yolu
EXTD=
EXTT0=
EXTT1=
EXTT2=
EXTT3=
EXTT4=
EXTT5=
EXTT6=
EXTT7=
EXTT8=
EXTT9=
EXTT10=
EXTT11=
PLAYORDER=
